#!OML:ASF F:\VICON\USERDATA\INSTALL\rory3\rory3.ASF
:FULLY-SPECIFIED
:DEGREES
238
root 1.19303 17.7245 12.9441 -6.63368 -1.49509 -1.45739
lowerback 18.2622 0.931222 -0.117513
upperback 1.72652 1.38843 2.05706
thorax -8.4349 0.70939 1.94097
lowerneck -6.31477 4.18884 2.36069
upperneck 33.3231 6.27958 -1.79136
head 12.123 2.91619 -0.33391
rclavicle -1.09332e-015 -1.78906e-014
rhumerus -38.4135 -16.8642 -71.1881
rradius 34.0243
rwrist -3.62219
rhand -11.0518 7.94797
rfingers 7.12502
rthumb 14.9706 -21.4909
lclavicle -1.09332e-015 -1.78906e-014
lhumerus -49.3716 34.4333 64.835
lradius 37.3468
lwrist 31.4952
lhand -14.6107 57.6689
lfingers 7.12502
lthumb 11.5402 -272.669
rfemur -6.68211 -1.08234 22.268
rtibia 71.8738
rfoot 8.99576 -12.6435
rtoes 9.00006
lfemur -18.5193 -2.40642 -23.6931
ltibia 36.8808
lfoot -7.76936 2.92039
ltoes -2.73418
239
root 1.21707 17.755 13.1659 -6.75321 -0.838667 -1.09825
lowerback 18.2178 0.797746 -0.328498
upperback 1.5911 1.16385 1.95875
thorax -8.55179 0.608924 2.01201
lowerneck -5.32392 4.11678 2.36085
upperneck 33.0397 6.22055 -1.92066
head 11.8066 2.89269 -0.417487
rclavicle 7.45443e-016 -1.19271e-014
rhumerus -39.0596 -16.9632 -70.7368
rradius 33.4984
rwrist -3.31726
rhand -10.6552 7.26017
rfingers 7.12502
rthumb 15.3526 -22.1499
lclavicle 7.45443e-016 -1.19271e-014
lhumerus -50.7769 34.5132 63.9157
lradius 38.5475
lwrist 35.4634
lhand -14.1081 57.8309
lfingers 7.12502
lthumb 12.0249 -272.535
rfemur -7.89339 -1.83032 21.6747
rtibia 73.0608
rfoot 7.64532 -13.5276
rtoes 11.245
lfemur -17.3297 -2.74902 -24.3708
ltibia 36.4741
lfoot -8.40958 2.9092
ltoes -3.31447
240
root 1.23963 17.7835 13.3831 -6.67646 -0.147675 -0.236351
lowerback 17.8744 0.765955 -1.07245
upperback 1.72691 0.952784 1.75022
thorax -8.21384 0.527274 2.26405
lowerneck -6.23161 4.05958 1.53392
upperneck 33.799 6.10488 -1.25744
head 12.2452 2.79941 -0.00877977
rclavicle 5.46658e-015 -9.93923e-015
rhumerus -39.1714 -17.6038 -70.2621
rradius 32.9977
rwrist -2.70167
rhand -10.0138 6.75922
rfingers 7.12502
rthumb 15.9704 -22.6024
lclavicle 5.46658e-015 -9.93923e-015
lhumerus -51.1746 35.0065 63.6109
lradius 39.8065
lwrist 39.8933
lhand -15.3852 59.4119
lfingers 7.12502
lthumb 10.7932 -270.885
rfemur -9.32567 -2.53496 20.4899
rtibia 74.0707
rfoot 6.2896 -14.1143
rtoes 11.2473
lfemur -16.2567 -3.14878 -25.571
ltibia 35.9947
lfoot -9.04226 2.92234
ltoes -3.36365
241
root 1.26021 17.8091 13.5911 -6.66742 0.358929 0.177022
lowerback 17.6267 0.71685 -1.39498
upperback 1.89596 0.817295 1.65904
thorax -7.88997 0.466972 2.38241
lowerneck -5.97352 4.0077 1.86461
upperneck 33.385 6.15009 -1.86805
head 12.0583 2.79667 -0.300649
rclavicle 7.25564e-015 -1.03368e-014
rhumerus -39.3276 -17.9895 -69.982
rradius 32.7204
rwrist -2.03275
rhand -9.8495 6.27743
rfingers 7.12502
rthumb 16.1286 -23.0715
lclavicle 7.25564e-015 -1.03368e-014
lhumerus -51.776 36.07 62.6101
lradius 40.2481
lwrist 41.9005
lhand -13.9427 59.0849
lfingers 7.12502
lthumb 12.1843 -271.29
rfemur -10.7589 -3.02567 19.936
rtibia 74.8491
rfoot 5.00519 -14.5526
rtoes 10.5067
lfemur -15.0701 -3.33107 -26.2255
ltibia 35.3265
lfoot -9.48088 2.85026
ltoes -2.66531
242
root 1.27333 17.8392 13.8011 -6.85123 0.787649 0.0688421
lowerback 17.4289 0.666207 -1.27188
upperback 2.1808 0.7779 1.71246
thorax -7.46984 0.438554 2.37818
lowerneck -5.99593 4.01147 2.05117
upperneck 33.2916 6.18475 -2.06999
head 12.0404 2.81323 -0.404231
rclavicle 5.91384e-015 3.97569e-015
rhumerus -39.4641 -18.2986 -69.8171
rradius 32.4211
rwrist -1.47449
rhand -10.0466 6.2809
rfingers 7.12502
rthumb 15.9387 -23.0833
lclavicle 5.91384e-015 3.97569e-015
lhumerus -52.0979 36.7845 62.0273
lradius 41.0124
lwrist 44.2065
lhand -13.4669 59.8293
lfingers 7.12502
lthumb 12.6431 -270.573
rfemur -11.9465 -3.38152 20.1017
rtibia 75.3822
rfoot 3.77599 -14.8649
rtoes 10.0578
lfemur -13.7602 -3.41887 -26.2454
ltibia 34.6812
lfoot -9.88036 2.61
ltoes -1.65493
243
root 1.28437 17.8631 14.0097 -6.96408 1.21234 0.0900172
lowerback 17.6384 0.649551 -1.34748
upperback 2.11022 0.744355 1.74787
thorax -7.66084 0.427839 2.46782
lowerneck -6.30771 3.91026 1.60375
upperneck 33.8374 6.01566 -1.65596
head 12.2939 2.72321 -0.179022
rclavicle -8.00108e-015 -1.19271e-014
rhumerus -40.0964 -18.5278 -69.4231
rradius 32.0689
rwrist -1.05707
rhand -9.98612 6.23676
rfingers 7.12502
rthumb 15.997 -23.1227
lclavicle -8.00108e-015 -1.19271e-014
lhumerus -52.938 36.7573 61.6563
lradius 42.7795
lwrist 47.4556
lhand -14.3986 61.2993
lfingers 7.12502
lthumb 11.7448 -90.95
rfemur -13.1676 -3.68879 20.1461
rtibia 75.7635
rfoot 2.66582 -14.9915
rtoes 10.0508
lfemur -12.5647 -3.50576 -26.4052
ltibia 34.1257
lfoot -10.2189 2.47398
ltoes -1.60189
244
root 1.30084 17.8833 14.2113 -6.92212 1.63795 0.4905
lowerback 17.4652 0.676419 -1.65994
upperback 2.21008 0.71456 1.66472
thorax -7.4587 0.418514 2.56302
lowerneck -6.38107 3.7684 1.55324
upperneck 33.8608 5.8311 -1.68335
head 12.3138 2.63165 -0.200977
rclavicle -3.52843e-015 3.57812e-015
rhumerus -40.4548 -18.9214 -69.0644
rradius 31.7956
rwrist -0.817066
rhand -9.78569 6.11714
rfingers 7.12502
rthumb 16.19 -23.2268
lclavicle -3.52843e-015 3.57812e-015
lhumerus -53.4328 35.0311 63.0033
lradius 46.3537
lwrist 52.8133
lhand -16.2545 62.804
lfingers 7.12502
lthumb 9.95466 -92.5486
rfemur -14.5339 -3.97996 19.709
rtibia 76.0109
rfoot 1.6742 -14.9162
rtoes 9.9126
lfemur -11.5447 -3.68025 -27.0206
ltibia 33.579
lfoot -10.4919 2.59941
ltoes -1.9419
245
root 1.31552 17.8999 14.4147 -6.82156 2.16612 0.970877
lowerback 17.2403 0.704287 -2.08552
upperback 2.22039 0.666514 1.56266
thorax -7.32482 0.404457 2.70698
lowerneck -6.12992 3.64526 1.60949
upperneck 33.628 5.66954 -1.78514
head 12.1664 2.56244 -0.276303
rclavicle -1.3418e-015 0
rhumerus -40.9777 -19.3759 -68.5008
rradius 31.3065
rwrist -0.391741
rhand -9.53064 6.42952
rfingers 7.12502
rthumb 16.4356 -22.8942
lclavicle -1.3418e-015 0
lhumerus -53.8666 34.9263 62.9112
lradius 47.98
lwrist 55.4498
lhand -16.8547 63.2326
lfingers 7.12502
lthumb 9.37559 -93.0041
rfemur -15.8648 -4.31938 19.1562
rtibia 76.0861
rfoot 1.5279 -14.5391
rtoes 13.457
lfemur -10.5904 -4.06947 -27.7257
ltibia 33.0474
lfoot -10.776 2.68318
ltoes -0.606401
246
root 1.32889 17.9113 14.6157 -6.79237 2.82884 1.56564
lowerback 17.2923 0.676246 -2.66996
upperback 2.16305 0.508939 1.42962
thorax -7.40875 0.345129 2.93452
lowerneck -6.37476 3.5321 1.16303
upperneck 33.8475 5.51351 -1.50797
head 12.2797 2.46682 -0.105277
rclavicle 1.15295e-014 -1.23246e-014
rhumerus -41.5568 -19.6717 -67.9585
rradius 30.7827
rwrist 0.0261096
rhand -9.16629 6.90574
rfingers 7.12502
rthumb 16.7864 -22.3886
lclavicle 1.15295e-014 -1.23246e-014
lhumerus -54.2937 35.8928 61.9108
lradius 48.5468
lwrist 56.2173
lhand -15.9673 63.0876
lfingers 7.12502
lthumb 10.2317 -92.8187
rfemur -17.042 -4.67746 18.4988
rtibia 75.9851
rfoot 0.658277 -14.0592
rtoes 14.5562
lfemur -9.55466 -4.46153 -28.5651
ltibia 32.5307
lfoot -11.041 2.66926
ltoes -0.0371164
247
root 1.34098 17.9205 14.8096 -6.78771 3.379 1.71736
lowerback 17.5589 0.6614 -2.81168
upperback 1.99946 0.456987 1.44044
thorax -7.72974 0.332348 3.04133
lowerneck -6.04291 3.30893 0.952143
upperneck 33.7029 5.21706 -1.47828
head 12.137 2.31979 -0.101569
rclavicle -1.54058e-015 -9.54166e-015
rhumerus -42.4467 -19.6441 -67.4274
rradius 30.7093
rwrist 0.0741271
rhand -8.77249 7.29276
rfingers 7.12502
rthumb 17.1654 -21.969
lclavicle -1.54058e-015 -9.54166e-015
lhumerus -54.8016 36.7285 60.9635
lradius 49.2218
lwrist 56.9798
lhand -15.2043 62.7021
lfingers 7.12502
lthumb 10.9678 -92.3956
rfemur -18.2548 -4.89748 18.4188
rtibia 75.6686
rfoot -0.537205 -13.6403
rtoes 14.5298
lfemur -8.57374 -4.70303 -28.8703
ltibia 32.118
lfoot -11.3429 2.62978
ltoes 0.0794457
248
root 1.35439 17.929 15.0076 -6.6992 3.79106 1.86941
lowerback 17.5641 0.650493 -2.98651
upperback 1.80997 0.40939 1.45271
thorax -7.9362 0.32175 3.16713
lowerneck -5.42215 3.22378 0.957796
upperneck 33.5526 5.10224 -1.51663
head 11.9464 2.27593 -0.144755
rclavicle 1.39149e-014 -3.10104e-014
rhumerus -43.3896 -19.4263 -67.0113
rradius 30.7591
rwrist 0.0772314
rhand -8.68937 7.16447
rfingers 7.12502
rthumb 17.2454 -22.0903
lclavicle 1.39149e-014 -3.10104e-014
lhumerus -55.4844 37.268 60.0378
lradius 50.3168
lwrist 58.5124
lhand -15.6656 62.8722
lfingers 7.12502
lthumb 10.5228 -92.5888
rfemur -19.5723 -4.91667 18.3729
rtibia 75.1575
rfoot -1.85282 -13.126
rtoes 13.2475
lfemur -7.71963 -4.84624 -29.1556
ltibia 31.8101
lfoot -11.7506 2.6139
ltoes -0.0931824
